<svg viewBox="0 0 136.36 46" xmlns="http://www.w3.org/2000/svg" xmlns:xlink="http://www.w3.org/1999/xlink" width="136.359863" height="46.000000" fill="none" customFrame="#000000">
	<path id="Bean Scene" d="M9.31396 31.4851C8.66455 29.8787 8.20882 28.3406 7.94678 26.8708C7.68473 25.4011 7.55371 24.0112 7.55371 22.7009C7.55371 22.5072 7.55371 22.3136 7.55371 22.1199C7.55371 21.9262 7.5651 21.7325 7.58789 21.5388C6.83594 21.4477 6.26058 21.2939 5.86182 21.0774C5.47445 20.8495 5.28076 20.5704 5.28076 20.24C5.28076 19.9096 5.50863 19.6362 5.96436 19.4197C6.43148 19.2032 7.0695 19.0494 7.87842 18.9583C8.06071 17.8417 8.29997 16.8334 8.59619 15.9333C8.89242 15.0333 9.17725 14.2699 9.45068 13.6433C9.73551 13.0053 9.98047 12.5154 10.1855 12.1736C10.3906 11.8204 10.4932 11.6324 10.4932 11.6096L11.1255 11.8147C11.0799 11.9514 10.9945 12.2021 10.8691 12.5667C10.7552 12.9198 10.6185 13.3927 10.459 13.9851C10.3109 14.5662 10.1571 15.2668 9.99756 16.0872C9.83805 16.8961 9.70133 17.8189 9.5874 18.8557L9.62158 18.8557C10.4875 18.8557 11.342 18.9013 12.1851 18.9924C13.0282 19.0722 13.8428 19.2089 14.6289 19.4026C15.1644 19.1064 15.6657 18.7703 16.1328 18.3943C16.5999 18.0069 17.0044 17.5854 17.3462 17.1296C17.6994 16.6625 17.9728 16.1612 18.1665 15.6257C18.3716 15.0789 18.4741 14.4978 18.4741 13.8826C18.4741 13.0281 18.326 12.2875 18.0298 11.6609C17.7336 11.0343 17.3519 10.4988 16.8848 10.0544C16.429 9.59871 15.9106 9.22843 15.3296 8.9436C14.7485 8.65877 14.1732 8.43661 13.6035 8.2771C13.0452 8.11759 12.5212 8.00936 12.0312 7.95239C11.5413 7.88403 11.1483 7.84985 10.8521 7.84985C9.74691 7.84985 8.73861 7.95239 7.82715 8.15747C6.91569 8.35116 6.09538 8.60181 5.36621 8.90942C4.64844 9.20565 4.02181 9.53036 3.48633 9.88354C2.95085 10.2253 2.50651 10.55 2.15332 10.8577C1.80013 11.1539 1.53239 11.4045 1.3501 11.6096C1.1792 11.8033 1.08805 11.9058 1.07666 11.9172L0.563965 11.49C0.586751 11.4558 0.694987 11.3248 0.888672 11.0969C1.09375 10.8691 1.38428 10.6013 1.76025 10.2937C2.14762 9.97469 2.62044 9.63289 3.17871 9.26831C3.73698 8.90373 4.38639 8.57332 5.12695 8.2771C5.86751 7.96948 6.69352 7.71313 7.60498 7.50806C8.52783 7.30298 9.54183 7.20044 10.647 7.20044C11.3875 7.20044 12.1452 7.25171 12.9199 7.35425C13.7061 7.44539 14.4637 7.5992 15.1929 7.81567C15.9334 8.03214 16.6341 8.31128 17.2949 8.65308C17.9557 8.99487 18.5311 9.41073 19.021 9.90063C19.5109 10.3905 19.8983 10.9602 20.1831 11.6096C20.4679 12.259 20.6104 12.9939 20.6104 13.8142C20.6104 14.3611 20.5021 14.908 20.2856 15.4548C20.0692 16.0017 19.7616 16.5372 19.3628 17.0613C18.964 17.5854 18.4855 18.081 17.9272 18.5481C17.369 19.0152 16.748 19.4425 16.0645 19.8298C16.8278 20.1033 17.5342 20.4394 18.1836 20.8381C18.833 21.2255 19.3913 21.6869 19.8584 22.2224C20.3255 22.7465 20.6901 23.3446 20.9521 24.0168C21.2142 24.689 21.3452 25.441 21.3452 26.2727C21.3452 27.1614 21.1857 28.0045 20.8667 28.802C20.5477 29.5995 20.0977 30.3344 19.5166 31.0066C18.9469 31.6788 18.2633 32.2826 17.4658 32.8181C16.6683 33.365 15.791 33.8264 14.834 34.2024C13.877 34.5784 12.8516 34.8632 11.7578 35.0569C10.6755 35.262 9.55892 35.3645 8.4082 35.3645C6.96126 35.3645 5.70801 35.1936 4.64844 34.8518C3.60026 34.5214 2.72868 34.0771 2.03369 33.5188C1.3501 32.9605 0.837402 32.3225 0.495605 31.6047C0.165202 30.8756 0 30.1236 0 29.3489C0 28.8476 0.074056 28.3748 0.222168 27.9304C0.381673 27.4747 0.598145 27.0588 0.871582 26.6829C1.15641 26.2955 1.49821 25.9594 1.89697 25.6746C2.29574 25.3783 2.74577 25.1448 3.24707 24.9739L3.46924 25.5037C3.0363 25.6632 2.67171 25.9024 2.37549 26.2214C2.09066 26.5404 1.8571 26.8879 1.6748 27.2639C1.50391 27.6399 1.37858 28.0216 1.29883 28.4089C1.23047 28.7963 1.19629 29.1324 1.19629 29.4172C1.19629 29.759 1.24186 30.1293 1.33301 30.5281C1.42415 30.9268 1.57796 31.3199 1.79443 31.7073C2.0109 32.0946 2.29574 32.4706 2.64893 32.8352C3.01351 33.1998 3.46354 33.5188 3.99902 33.7922C4.53451 34.0657 5.16683 34.2821 5.896 34.4417C6.62516 34.6125 7.46256 34.698 8.4082 34.698C9.13737 34.698 9.91781 34.6182 10.7495 34.4587C11.5812 34.3106 12.4015 34.0828 13.2104 33.7751C14.0194 33.4675 14.7941 33.0859 15.5347 32.6301C16.2752 32.1744 16.9303 31.6389 17.5 31.0237C18.0697 30.4084 18.5197 29.7192 18.8501 28.9558C19.1919 28.1925 19.3628 27.3551 19.3628 26.4436C19.3628 25.6233 19.2489 24.8941 19.021 24.2561C18.7931 23.6181 18.4741 23.0541 18.064 22.5642C17.6652 22.0743 17.1981 21.6584 16.6626 21.3167C16.1271 20.9635 15.5518 20.6672 14.9365 20.428C14.0934 20.7926 13.2048 21.0831 12.2705 21.2996C11.3477 21.5046 10.3849 21.6072 9.38232 21.6072C9.35954 22.0059 9.34245 22.4218 9.33105 22.8547C9.31966 23.2763 9.31396 23.7149 9.31396 24.1707C9.31396 25.2644 9.37093 26.4094 9.48486 27.6057C9.5988 28.802 9.764 30.061 9.98047 31.3826L9.31396 31.4851ZM9.4165 20.9065C10.0203 20.8837 10.6698 20.7983 11.3647 20.6501C12.0711 20.4906 12.7718 20.2628 13.4668 19.9666C12.8174 19.807 12.1623 19.6931 11.5015 19.6248C10.8521 19.545 10.2254 19.5051 9.62158 19.5051L9.51904 19.5051C9.49626 19.733 9.47917 19.9666 9.46777 20.2058C9.45638 20.4337 9.43929 20.6672 9.4165 20.9065ZM5.98145 20.2742C5.98145 20.3539 6.10677 20.4508 6.35742 20.5647C6.60807 20.6786 7.02962 20.7698 7.62207 20.8381C7.64486 20.6331 7.66764 20.428 7.69043 20.2229C7.71322 20.0178 7.7417 19.8184 7.77588 19.6248C7.12646 19.7159 6.66504 19.8298 6.3916 19.9666C6.11816 20.1033 5.98145 20.2058 5.98145 20.2742ZM28.4204 32.0833C27.8394 32.0833 27.2811 31.9807 26.7456 31.7756C26.2101 31.5706 25.7373 31.2629 25.3271 30.8528C24.9284 30.4312 24.6094 29.9071 24.3701 29.2805C24.1309 28.6539 24.0112 27.919 24.0112 27.0759C24.0112 26.0505 24.1593 25.1391 24.4556 24.3416C24.7518 23.5326 25.1278 22.8547 25.5835 22.3079C26.0506 21.7496 26.569 21.328 27.1387 21.0432C27.7083 20.747 28.2666 20.5989 28.8135 20.5989C29.5199 20.5989 30.0781 20.8324 30.4883 21.2996C30.9098 21.7667 31.1206 22.3705 31.1206 23.1111C31.1206 23.7491 31.001 24.3302 30.7617 24.8542C30.5225 25.3669 30.2035 25.8113 29.8047 26.1873C29.4173 26.5518 28.9673 26.8367 28.4546 27.0417C27.9533 27.2468 27.4292 27.3494 26.8823 27.3494C26.6203 27.3494 26.3696 27.338 26.1304 27.3152C25.9025 27.281 25.6974 27.2468 25.5151 27.2126C25.5835 27.919 25.7202 28.5286 25.9253 29.0413C26.1304 29.554 26.3867 29.9755 26.6943 30.3059C27.002 30.6363 27.3438 30.8813 27.7197 31.0408C28.1071 31.2003 28.5059 31.28 28.916 31.28C29.4287 31.28 29.9015 31.1547 30.3345 30.9041C30.7674 30.6534 31.1662 30.3287 31.5308 29.9299C31.8953 29.5198 32.2257 29.0527 32.522 28.5286C32.8296 28.0045 33.103 27.4747 33.3423 26.9392C33.5815 26.3923 33.7923 25.8625 33.9746 25.3499C34.1683 24.8258 34.3392 24.3643 34.4873 23.9656L35.1538 24.1365C35.0057 24.5125 34.8291 24.9682 34.624 25.5037C34.4303 26.0391 34.2025 26.6031 33.9404 27.1956C33.6784 27.7766 33.3708 28.3634 33.0176 28.9558C32.6644 29.5369 32.2656 30.061 31.8213 30.5281C31.377 30.9838 30.87 31.3598 30.3003 31.656C29.742 31.9408 29.1154 32.0833 28.4204 32.0833ZM28.8477 21.2654C28.4261 21.2654 28.0103 21.4021 27.6001 21.6755C27.2013 21.9376 26.8424 22.3022 26.5234 22.7693C26.2044 23.2364 25.9424 23.789 25.7373 24.427C25.5436 25.065 25.4468 25.7486 25.4468 26.4778C25.5949 26.5347 25.8 26.586 26.062 26.6316C26.3354 26.6658 26.6659 26.6829 27.0532 26.6829C27.4634 26.6829 27.8678 26.5974 28.2666 26.4265C28.6768 26.2442 29.0413 25.9993 29.3604 25.6917C29.6908 25.3726 29.9528 24.9967 30.1465 24.5637C30.3516 24.1308 30.4541 23.658 30.4541 23.1453C30.4541 22.8946 30.4199 22.6554 30.3516 22.4275C30.2832 22.1996 30.1807 22.0002 30.0439 21.8293C29.9072 21.6584 29.7363 21.5217 29.5312 21.4192C29.3376 21.3167 29.1097 21.2654 28.8477 21.2654ZM47.6465 24.1365C47.1794 25.4011 46.7521 26.4607 46.3647 27.3152C45.9888 28.1697 45.6185 28.859 45.2539 29.3831C44.9007 29.9071 44.5475 30.2831 44.1943 30.511C43.8411 30.7389 43.4538 30.8528 43.0322 30.8528C42.5195 30.8528 42.0809 30.6762 41.7163 30.323C41.3517 29.9584 41.1239 29.4001 41.0327 28.6482C40.6681 29.4343 40.1953 30.078 39.6143 30.5793C39.0332 31.0693 38.304 31.3142 37.4268 31.3142C36.9596 31.3142 36.5096 31.2288 36.0767 31.0579C35.6551 30.887 35.2791 30.6249 34.9487 30.2717C34.6183 29.9071 34.3506 29.4514 34.1455 28.9045C33.9518 28.3577 33.855 27.7139 33.855 26.9734C33.855 26.2214 33.9461 25.5151 34.1284 24.8542C34.3221 24.1934 34.5728 23.5896 34.8804 23.0427C35.188 22.4845 35.5412 21.9888 35.9399 21.5559C36.3501 21.123 36.7716 20.7584 37.2046 20.4622C37.6375 20.1659 38.0705 19.9381 38.5034 19.7786C38.9364 19.6191 39.3351 19.5393 39.6997 19.5393C40.0187 19.5393 40.3263 19.5792 40.6226 19.6589C40.9188 19.7387 41.1808 19.8697 41.4087 20.052C41.6479 20.2229 41.8359 20.4565 41.9727 20.7527C42.1208 21.0489 42.1948 21.4192 42.1948 21.8635C42.1948 22.3876 42.0923 22.8433 41.8872 23.2307C41.6935 23.6181 41.4543 23.9428 41.1694 24.2048C40.896 24.4669 40.6112 24.6777 40.3149 24.8372C40.0301 24.9967 39.8022 25.1106 39.6313 25.179L39.4263 24.5125C39.4604 24.5125 39.5858 24.4669 39.8022 24.3757C40.0301 24.2846 40.2637 24.1365 40.5029 23.9314C40.7536 23.7149 40.9814 23.4415 41.1865 23.1111C41.3916 22.7807 41.4941 22.3762 41.4941 21.8977C41.4941 21.3508 41.3403 20.935 41.0327 20.6501C40.7251 20.3539 40.332 20.2058 39.8535 20.2058C39.4889 20.2058 39.0617 20.3368 38.5718 20.5989C38.0819 20.8609 37.6091 21.2711 37.1533 21.8293C36.709 22.3876 36.3273 23.094 36.0083 23.9485C35.7007 24.803 35.5469 25.8227 35.5469 27.0076C35.5469 28.1811 35.752 29.0754 36.1621 29.6907C36.5837 30.3059 37.1476 30.6135 37.854 30.6135C38.2072 30.6135 38.5433 30.5167 38.8623 30.323C39.1927 30.1179 39.4946 29.8502 39.7681 29.5198C40.0415 29.1894 40.2865 28.8077 40.5029 28.3748C40.7194 27.9304 40.9074 27.4747 41.0669 27.0076C41.0669 26.643 41.1068 26.2157 41.1865 25.7258C41.2777 25.2245 41.4144 24.7175 41.5967 24.2048L42.6392 24.5466C42.5822 24.6947 42.5252 24.8884 42.4683 25.1277C42.4113 25.3669 42.3543 25.629 42.2974 25.9138C42.2518 26.1986 42.2119 26.4949 42.1777 26.8025C42.1436 27.0987 42.1265 27.3892 42.1265 27.6741C42.1265 28.5627 42.2119 29.178 42.3828 29.5198C42.5651 29.8502 42.8727 30.0154 43.3057 30.0154C43.5563 30.0154 43.8013 29.9242 44.0405 29.7419C44.2912 29.5597 44.5589 29.2406 44.8438 28.7849C45.1286 28.3292 45.4419 27.7139 45.7837 26.9392C46.1255 26.1531 46.5243 25.1619 46.98 23.9656L47.6465 24.1365ZM46.9971 23.9656C47.168 23.5212 47.3503 23.0997 47.5439 22.7009C47.749 22.2908 47.9655 21.9319 48.1934 21.6243C48.4212 21.3167 48.6662 21.0717 48.9282 20.8894C49.2017 20.6957 49.5036 20.5989 49.834 20.5989C49.9935 20.5989 50.1758 20.6331 50.3809 20.7014C50.5859 20.7698 50.7796 20.9065 50.9619 21.1116C51.1556 21.3167 51.3151 21.6129 51.4404 22.0002C51.5658 22.3876 51.6284 22.9003 51.6284 23.5383C51.6284 23.8687 51.6113 24.2333 51.5771 24.6321C51.543 25.0308 51.5088 25.4239 51.4746 25.8113C51.8278 25.0593 52.1753 24.427 52.5171 23.9143C52.8703 23.3902 53.2121 22.9744 53.5425 22.6667C53.8843 22.3477 54.2204 22.1199 54.5508 21.9832C54.8812 21.835 55.2116 21.761 55.542 21.761C55.6901 21.761 55.861 21.7952 56.0547 21.8635C56.2598 21.9319 56.4478 22.0515 56.6187 22.2224C56.8009 22.3933 56.9491 22.6269 57.063 22.9231C57.1883 23.2193 57.251 23.601 57.251 24.0681C57.251 24.4441 57.2225 24.8201 57.1655 25.196C57.1086 25.572 57.0459 25.9366 56.9775 26.2898C56.9092 26.643 56.8465 26.9791 56.7896 27.2981C56.7326 27.6057 56.7041 27.8792 56.7041 28.1184C56.7041 28.6881 56.8066 29.1267 57.0117 29.4343C57.2168 29.7306 57.5301 29.8787 57.9517 29.8787C58.2935 29.8787 58.6182 29.7533 58.9258 29.5027C59.2334 29.2406 59.5182 28.9102 59.7803 28.5115C60.0537 28.1127 60.2987 27.6741 60.5151 27.1956C60.743 26.717 60.9367 26.2613 61.0962 25.8284C61.2671 25.384 61.4095 24.9967 61.5234 24.6663C61.6374 24.3245 61.7171 24.0909 61.7627 23.9656L62.4292 24.1365C62.2697 24.5352 62.0988 24.9796 61.9165 25.4695C61.7456 25.948 61.5519 26.4322 61.3354 26.9221C61.119 27.412 60.8854 27.8905 60.6348 28.3577C60.3841 28.8134 60.105 29.2179 59.7974 29.571C59.4897 29.9242 59.1536 30.2091 58.7891 30.4255C58.4359 30.642 58.0428 30.7502 57.6099 30.7502C57.2453 30.7502 56.9263 30.6819 56.6528 30.5452C56.3908 30.3971 56.1686 30.2034 55.9863 29.9641C55.804 29.7249 55.6673 29.44 55.5762 29.1096C55.485 28.7792 55.4395 28.426 55.4395 28.05C55.4395 27.6285 55.4736 27.1956 55.542 26.7512C55.6217 26.3069 55.7015 25.8796 55.7812 25.4695C55.8724 25.0593 55.9521 24.6833 56.0205 24.3416C56.1003 23.9884 56.1401 23.6978 56.1401 23.47C56.1401 23.1168 56.0718 22.8547 55.9351 22.6838C55.7983 22.5015 55.6104 22.4104 55.3711 22.4104C55.0407 22.4104 54.716 22.53 54.397 22.7693C54.0894 23.0085 53.7874 23.3276 53.4912 23.7263C53.2064 24.1251 52.9329 24.5808 52.6709 25.0935C52.4089 25.6062 52.1639 26.136 51.936 26.6829C51.7196 27.2183 51.5145 27.7538 51.3208 28.2893C51.1385 28.8248 50.979 29.309 50.8423 29.7419C50.7056 30.1749 50.5859 30.5452 50.4834 30.8528C50.3923 31.149 50.3296 31.337 50.2954 31.4167L49.3042 31.2458C49.4409 30.5736 49.5662 29.8673 49.6802 29.1267C49.7941 28.3748 49.8909 27.6399 49.9707 26.9221C50.0618 26.193 50.1302 25.498 50.1758 24.8372C50.2327 24.1764 50.2612 23.5896 50.2612 23.0769C50.2612 22.3819 50.2157 21.9148 50.1245 21.6755C50.0334 21.4249 49.8682 21.2996 49.6289 21.2996C49.4238 21.2996 49.2301 21.3793 49.0479 21.5388C48.8656 21.6869 48.6947 21.892 48.5352 22.1541C48.387 22.4047 48.2389 22.7009 48.0908 23.0427C47.9427 23.3845 47.8003 23.7491 47.6636 24.1365L46.9971 23.9656ZM72.9224 14.5833C72.9224 15.2213 73.0534 15.7966 73.3154 16.3093C73.5775 16.8106 73.9307 17.2721 74.375 17.6936C74.8193 18.1038 75.3377 18.4854 75.9302 18.8386C76.534 19.1804 77.172 19.5165 77.8442 19.8469C78.5164 20.1659 79.2057 20.4849 79.9121 20.804C80.6299 21.1116 81.3249 21.442 81.9971 21.7952C82.6693 22.137 83.3016 22.5129 83.894 22.9231C84.4979 23.3219 85.022 23.7719 85.4663 24.2732C85.9106 24.7631 86.2638 25.3157 86.5259 25.9309C86.7879 26.5347 86.9189 27.2183 86.9189 27.9817C86.9189 29.3717 86.6569 30.5793 86.1328 31.6047C85.6087 32.6187 84.908 33.4561 84.0308 34.1169C83.1535 34.7891 82.1338 35.2847 80.9717 35.6038C79.8096 35.9342 78.5962 36.0994 77.3315 36.0994C76.215 36.0994 75.1611 35.9513 74.1699 35.655C73.1787 35.3702 72.3071 34.9657 71.5552 34.4417C70.8032 33.929 70.2051 33.308 69.7607 32.5789C69.3278 31.8611 69.1113 31.075 69.1113 30.2205C69.1113 29.4685 69.2253 28.8305 69.4531 28.3064C69.6924 27.7709 69.9487 27.3323 70.2222 26.9905C70.507 26.6487 70.7747 26.398 71.0254 26.2385C71.276 26.079 71.4185 25.9936 71.4526 25.9822L71.8286 26.7854C71.8058 26.7968 71.6976 26.8708 71.5039 27.0076C71.3102 27.1329 71.0994 27.3323 70.8716 27.6057C70.6551 27.8792 70.45 28.2323 70.2563 28.6653C70.0741 29.0868 69.9829 29.6052 69.9829 30.2205C69.9829 30.8357 70.0968 31.3883 70.3247 31.8782C70.564 32.3567 70.8773 32.7782 71.2646 33.1428C71.6634 33.5074 72.1134 33.8207 72.6147 34.0828C73.1274 34.3448 73.6572 34.5556 74.2041 34.7151C74.751 34.886 75.2979 35.0056 75.8447 35.074C76.3916 35.1537 76.8986 35.1936 77.3657 35.1936C78.5734 35.1936 79.6672 35.0398 80.647 34.7322C81.6268 34.436 82.4585 34.0201 83.1421 33.4846C83.8371 32.9605 84.3726 32.351 84.7485 31.656C85.1245 30.9496 85.3125 30.192 85.3125 29.3831C85.3125 28.4716 85.1188 27.6855 84.7314 27.0247C84.3441 26.3639 83.8314 25.7828 83.1934 25.2815C82.5553 24.7688 81.8262 24.3131 81.0059 23.9143C80.1969 23.5042 79.3652 23.1054 78.5107 22.718C77.6676 22.3306 76.8359 21.9262 76.0156 21.5046C75.2067 21.0717 74.4832 20.5761 73.8452 20.0178C73.2072 19.4596 72.6945 18.8158 72.3071 18.0867C71.9198 17.3461 71.7261 16.4688 71.7261 15.4548C71.7261 14.3269 71.9141 13.2958 72.29 12.3616C72.6774 11.4273 73.2015 10.6241 73.8623 9.9519C74.5345 9.26831 75.3206 8.74422 76.2207 8.37964C77.1208 8.00366 78.0949 7.81567 79.1431 7.81567C80.2026 7.81567 81.1312 7.941 81.9287 8.19165C82.7262 8.43091 83.3927 8.77271 83.9282 9.21704C84.4751 9.64998 84.8796 10.1741 85.1416 10.7893C85.415 11.4045 85.5518 12.0824 85.5518 12.823C85.5518 13.4268 85.4777 14.0193 85.3296 14.6003C85.1929 15.17 85.0391 15.6827 84.8682 16.1384C84.6973 16.5942 84.5378 16.9644 84.3896 17.2493C84.2415 17.5341 84.1618 17.6936 84.1504 17.7278L83.3813 17.3005C83.3813 17.2891 83.444 17.1524 83.5693 16.8904C83.7061 16.6283 83.8542 16.2865 84.0137 15.865C84.1732 15.4434 84.3156 14.9706 84.4409 14.4465C84.5776 13.9111 84.646 13.3699 84.646 12.823C84.646 12.2078 84.5321 11.6495 84.3042 11.1482C84.0877 10.6355 83.7516 10.2026 83.2959 9.84937C82.8402 9.49618 82.2648 9.22274 81.5698 9.02905C80.8748 8.83537 80.0545 8.73853 79.1089 8.73853C78.2316 8.73853 77.417 8.88664 76.665 9.18286C75.9131 9.46769 75.258 9.87215 74.6997 10.3962C74.1528 10.9203 73.7199 11.5413 73.4009 12.259C73.0819 12.9654 72.9224 13.7402 72.9224 14.5833ZM94.1992 23.4358C94.1992 22.7522 94.3587 22.1597 94.6777 21.6584C95.0081 21.1571 95.4297 20.6729 95.9424 20.2058C95.7829 20.1033 95.612 20.0292 95.4297 19.9836C95.2474 19.9267 95.0708 19.8982 94.8999 19.8982C94.5239 19.8982 94.1195 19.995 93.6865 20.1887C93.265 20.371 92.8719 20.6843 92.5073 21.1287C92.1541 21.573 91.8579 22.1711 91.6187 22.9231C91.3794 23.6637 91.2598 24.5922 91.2598 25.7087C91.2598 26.6316 91.368 27.4234 91.5845 28.0842C91.8123 28.745 92.12 29.2919 92.5073 29.7249C92.8947 30.1464 93.3447 30.4597 93.8574 30.6648C94.3701 30.8585 94.917 30.9553 95.498 30.9553C96.193 30.9553 96.814 30.7787 97.3608 30.4255C97.9077 30.061 98.409 29.5653 98.8647 28.9387C99.3205 28.3007 99.742 27.5601 100.129 26.717C100.528 25.8625 100.921 24.9454 101.309 23.9656L101.958 24.1365C101.73 24.6947 101.491 25.2701 101.24 25.8625C101.001 26.455 100.733 27.0417 100.437 27.6228C100.152 28.1925 99.8332 28.7336 99.48 29.2463C99.1382 29.759 98.7394 30.2091 98.2837 30.5964C97.8394 30.9838 97.3381 31.2914 96.7798 31.5193C96.2215 31.7472 95.5949 31.8611 94.8999 31.8611C94.1935 31.8611 93.5213 31.7472 92.8833 31.5193C92.2567 31.28 91.7041 30.9268 91.2256 30.4597C90.7471 29.9812 90.3654 29.3831 90.0806 28.6653C89.7957 27.9475 89.6533 27.1044 89.6533 26.136C89.6533 25.1562 89.8128 24.2447 90.1318 23.4016C90.4622 22.5585 90.8781 21.8293 91.3794 21.2141C91.8807 20.5989 92.4333 20.1147 93.0371 19.7615C93.641 19.4083 94.2163 19.2317 94.7632 19.2317C95.4012 19.2317 95.9709 19.3969 96.4722 19.7273C96.5633 19.6589 96.6488 19.5906 96.7285 19.5222C96.8197 19.4425 96.9108 19.357 97.002 19.2659L97.3779 19.7957C97.3096 19.864 97.2412 19.9267 97.1729 19.9836C97.1045 20.0406 97.0361 20.1033 96.9678 20.1716C97.1729 20.4223 97.3381 20.7185 97.4634 21.0603C97.6001 21.4021 97.6685 21.7838 97.6685 22.2053C97.6685 22.6724 97.6115 23.0883 97.4976 23.4529C97.395 23.8061 97.2469 24.108 97.0532 24.3586C96.8709 24.6093 96.6602 24.7973 96.4209 24.9226C96.1816 25.0479 95.931 25.1106 95.6689 25.1106C95.5322 25.1106 95.3784 25.0821 95.2075 25.0251C95.0366 24.9568 94.8771 24.8599 94.729 24.7346C94.5809 24.5979 94.4556 24.427 94.353 24.2219C94.2505 24.0055 94.1992 23.7434 94.1992 23.4358ZM96.9678 22.2053C96.9678 21.8749 96.9165 21.5787 96.814 21.3167C96.7228 21.0546 96.5975 20.8267 96.438 20.6331C96.0164 20.9976 95.6519 21.4078 95.3442 21.8635C95.048 22.3079 94.8999 22.832 94.8999 23.4358C94.8999 23.7548 94.9797 24.0055 95.1392 24.1877C95.2987 24.3586 95.4867 24.4441 95.7031 24.4441C95.9538 24.4441 96.1589 24.3643 96.3184 24.2048C96.4893 24.0453 96.6203 23.8516 96.7114 23.6238C96.8026 23.3845 96.8652 23.1396 96.8994 22.8889C96.945 22.6269 96.9678 22.399 96.9678 22.2053ZM105.051 32.0833C104.47 32.0833 103.912 31.9807 103.376 31.7756C102.841 31.5706 102.368 31.2629 101.958 30.8528C101.559 30.4312 101.24 29.9071 101.001 29.2805C100.762 28.6539 100.642 27.919 100.642 27.0759C100.642 26.0505 100.79 25.1391 101.086 24.3416C101.383 23.5326 101.759 22.8547 102.214 22.3079C102.681 21.7496 103.2 21.328 103.77 21.0432C104.339 20.747 104.897 20.5989 105.444 20.5989C106.151 20.5989 106.709 20.8324 107.119 21.2996C107.541 21.7667 107.751 22.3705 107.751 23.1111C107.751 23.7491 107.632 24.3302 107.393 24.8542C107.153 25.3669 106.834 25.8113 106.436 26.1873C106.048 26.5518 105.598 26.8367 105.085 27.0417C104.584 27.2468 104.06 27.3494 103.513 27.3494C103.251 27.3494 103 27.338 102.761 27.3152C102.533 27.281 102.328 27.2468 102.146 27.2126C102.214 27.919 102.351 28.5286 102.556 29.0413C102.761 29.554 103.018 29.9755 103.325 30.3059C103.633 30.6363 103.975 30.8813 104.351 31.0408C104.738 31.2003 105.137 31.28 105.547 31.28C106.06 31.28 106.532 31.1547 106.965 30.9041C107.398 30.6534 107.797 30.3287 108.162 29.9299C108.526 29.5198 108.857 29.0527 109.153 28.5286C109.46 28.0045 109.734 27.4747 109.973 26.9392C110.212 26.3923 110.423 25.8625 110.605 25.3499C110.799 24.8258 110.97 24.3643 111.118 23.9656L111.785 24.1365C111.637 24.5125 111.46 24.9682 111.255 25.5037C111.061 26.0391 110.833 26.6031 110.571 27.1956C110.309 27.7766 110.002 28.3634 109.648 28.9558C109.295 29.5369 108.896 30.061 108.452 30.5281C108.008 30.9838 107.501 31.3598 106.931 31.656C106.373 31.9408 105.746 32.0833 105.051 32.0833ZM105.479 21.2654C105.057 21.2654 104.641 21.4021 104.231 21.6755C103.832 21.9376 103.473 22.3022 103.154 22.7693C102.835 23.2364 102.573 23.789 102.368 24.427C102.174 25.065 102.078 25.7486 102.078 26.4778C102.226 26.5347 102.431 26.586 102.693 26.6316C102.966 26.6658 103.297 26.6829 103.684 26.6829C104.094 26.6829 104.499 26.5974 104.897 26.4265C105.308 26.2442 105.672 25.9993 105.991 25.6917C106.322 25.3726 106.584 24.9967 106.777 24.5637C106.982 24.1308 107.085 23.658 107.085 23.1453C107.085 22.8946 107.051 22.6554 106.982 22.4275C106.914 22.1996 106.812 22.0002 106.675 21.8293C106.538 21.6584 106.367 21.5217 106.162 21.4192C105.968 21.3167 105.741 21.2654 105.479 21.2654ZM111.118 23.9656C111.289 23.5212 111.471 23.0997 111.665 22.7009C111.87 22.2908 112.087 21.9319 112.314 21.6243C112.542 21.3167 112.787 21.0717 113.049 20.8894C113.323 20.6957 113.625 20.5989 113.955 20.5989C114.115 20.5989 114.297 20.6331 114.502 20.7014C114.707 20.7698 114.901 20.9065 115.083 21.1116C115.277 21.3167 115.436 21.6129 115.562 22.0002C115.687 22.3876 115.75 22.9003 115.75 23.5383C115.75 23.8687 115.732 24.2333 115.698 24.6321C115.664 25.0308 115.63 25.4239 115.596 25.8113C115.949 25.0593 116.296 24.427 116.638 23.9143C116.991 23.3902 117.333 22.9744 117.664 22.6667C118.005 22.3477 118.341 22.1199 118.672 21.9832C119.002 21.835 119.333 21.761 119.663 21.761C119.811 21.761 119.982 21.7952 120.176 21.8635C120.381 21.9319 120.569 22.0515 120.74 22.2224C120.922 22.3933 121.07 22.6269 121.184 22.9231C121.309 23.2193 121.372 23.601 121.372 24.0681C121.372 24.4441 121.344 24.8201 121.287 25.196C121.23 25.572 121.167 25.9366 121.099 26.2898C121.03 26.643 120.968 26.9791 120.911 27.2981C120.854 27.6057 120.825 27.8792 120.825 28.1184C120.825 28.6881 120.928 29.1267 121.133 29.4343C121.338 29.7306 121.651 29.8787 122.073 29.8787C122.415 29.8787 122.739 29.7533 123.047 29.5027C123.354 29.2406 123.639 28.9102 123.901 28.5115C124.175 28.1127 124.42 27.6741 124.636 27.1956C124.864 26.717 125.058 26.2613 125.217 25.8284C125.388 25.384 125.531 24.9967 125.645 24.6663C125.758 24.3245 125.838 24.0909 125.884 23.9656L126.55 24.1365C126.391 24.5352 126.22 24.9796 126.038 25.4695C125.867 25.948 125.673 26.4322 125.457 26.9221C125.24 27.412 125.007 27.8905 124.756 28.3577C124.505 28.8134 124.226 29.2179 123.918 29.571C123.611 29.9242 123.275 30.2091 122.91 30.4255C122.557 30.642 122.164 30.7502 121.731 30.7502C121.366 30.7502 121.047 30.6819 120.774 30.5452C120.512 30.3971 120.29 30.2034 120.107 29.9641C119.925 29.7249 119.788 29.44 119.697 29.1096C119.606 28.7792 119.561 28.426 119.561 28.05C119.561 27.6285 119.595 27.1956 119.663 26.7512C119.743 26.3069 119.823 25.8796 119.902 25.4695C119.993 25.0593 120.073 24.6833 120.142 24.3416C120.221 23.9884 120.261 23.6978 120.261 23.47C120.261 23.1168 120.193 22.8547 120.056 22.6838C119.919 22.5015 119.731 22.4104 119.492 22.4104C119.162 22.4104 118.837 22.53 118.518 22.7693C118.21 23.0085 117.909 23.3276 117.612 23.7263C117.327 24.1251 117.054 24.5808 116.792 25.0935C116.53 25.6062 116.285 26.136 116.057 26.6829C115.841 27.2183 115.636 27.7538 115.442 28.2893C115.26 28.8248 115.1 29.309 114.963 29.7419C114.827 30.1749 114.707 30.5452 114.604 30.8528C114.513 31.149 114.451 31.337 114.417 31.4167L113.425 31.2458C113.562 30.5736 113.687 29.8673 113.801 29.1267C113.915 28.3748 114.012 27.6399 114.092 26.9221C114.183 26.193 114.251 25.498 114.297 24.8372C114.354 24.1764 114.382 23.5896 114.382 23.0769C114.382 22.3819 114.337 21.9148 114.246 21.6755C114.154 21.4249 113.989 21.2996 113.75 21.2996C113.545 21.2996 113.351 21.3793 113.169 21.5388C112.987 21.6869 112.816 21.892 112.656 22.1541C112.508 22.4047 112.36 22.7009 112.212 23.0427C112.064 23.3845 111.921 23.7491 111.785 24.1365L111.118 23.9656ZM129.626 32.0833C129.045 32.0833 128.487 31.9807 127.952 31.7756C127.416 31.5706 126.943 31.2629 126.533 30.8528C126.134 30.4312 125.815 29.9071 125.576 29.2805C125.337 28.6539 125.217 27.919 125.217 27.0759C125.217 26.0505 125.365 25.1391 125.662 24.3416C125.958 23.5326 126.334 22.8547 126.79 22.3079C127.257 21.7496 127.775 21.328 128.345 21.0432C128.914 20.747 129.473 20.5989 130.02 20.5989C130.726 20.5989 131.284 20.8324 131.694 21.2996C132.116 21.7667 132.327 22.3705 132.327 23.1111C132.327 23.7491 132.207 24.3302 131.968 24.8542C131.729 25.3669 131.41 25.8113 131.011 26.1873C130.623 26.5518 130.173 26.8367 129.661 27.0417C129.159 27.2468 128.635 27.3494 128.088 27.3494C127.826 27.3494 127.576 27.338 127.336 27.3152C127.109 27.281 126.903 27.2468 126.721 27.2126C126.79 27.919 126.926 28.5286 127.131 29.0413C127.336 29.554 127.593 29.9755 127.9 30.3059C128.208 30.6363 128.55 30.8813 128.926 31.0408C129.313 31.2003 129.712 31.28 130.122 31.28C130.635 31.28 131.108 31.1547 131.541 30.9041C131.973 30.6534 132.372 30.3287 132.737 29.9299C133.101 29.5198 133.432 29.0527 133.728 28.5286C134.036 28.0045 134.309 27.4747 134.548 26.9392C134.788 26.3923 134.998 25.8625 135.181 25.3499C135.374 24.8258 135.545 24.3643 135.693 23.9656L136.36 24.1365C136.212 24.5125 136.035 24.9682 135.83 25.5037C135.636 26.0391 135.409 26.6031 135.146 27.1956C134.884 27.7766 134.577 28.3634 134.224 28.9558C133.87 29.5369 133.472 30.061 133.027 30.5281C132.583 30.9838 132.076 31.3598 131.506 31.656C130.948 31.9408 130.321 32.0833 129.626 32.0833ZM130.054 21.2654C129.632 21.2654 129.216 21.4021 128.806 21.6755C128.407 21.9376 128.049 22.3022 127.729 22.7693C127.41 23.2364 127.148 23.789 126.943 24.427C126.75 25.065 126.653 25.7486 126.653 26.4778C126.801 26.5347 127.006 26.586 127.268 26.6316C127.542 26.6658 127.872 26.6829 128.259 26.6829C128.669 26.6829 129.074 26.5974 129.473 26.4265C129.883 26.2442 130.247 25.9993 130.566 25.6917C130.897 25.3726 131.159 24.9967 131.353 24.5637C131.558 24.1308 131.66 23.658 131.66 23.1453C131.66 22.8946 131.626 22.6554 131.558 22.4275C131.489 22.1996 131.387 22.0002 131.25 21.8293C131.113 21.6584 130.942 21.5217 130.737 21.4192C130.544 21.3167 130.316 21.2654 130.054 21.2654Z" fill="rgb(255,255,255)" fill-rule="nonzero" />
</svg>
